 0
SECTION
 2
ENTITIES
  0
POLYLINE
 8
Layer0
 66
     1
70
    8
 10
0.0
 20
 0.0
 30
0.0
  0
VERTEX
  8
MY3DLAYER
10
0.0
20
0.0
30
0.0
 70
     32
  0
VERTEX
  8
MY3DLAYER
10
0.0
20
113.0
30
0.0
 70
     32
  0
VERTEX
  8
MY3DLAYER
10
6.70884442913354
20
114.673624694821
30
0.0
 70
     32
  0
VERTEX
  8
MY3DLAYER
10
13.4854305126294
20
116.047485767273
30
0.0
 70
     32
  0
VERTEX
  8
MY3DLAYER
10
20.3163712081269
20
117.118869175781
30
0.0
 70
     32
  0
VERTEX
  8
MY3DLAYER
10
27.1881720965591
20
117.885658418776
30
0.0
 70
     32
  0
VERTEX
  8
MY3DLAYER
10
34.0872580401716
20
118.346338715814
30
0.0
 70
     32
  0
VERTEX
  8
MY3DLAYER
10
41.0
20
118.5
30
0.0
 70
     32
  0
VERTEX
  8
MY3DLAYER
10
47.9127419598284
20
118.346338715814
30
0.0
 70
     32
  0
VERTEX
  8
MY3DLAYER
10
54.8118279034409
20
117.885658418776
30
0.0
 70
     32
  0
VERTEX
  8
MY3DLAYER
10
61.683628791873
20
117.118869175781
30
0.0
 70
     32
  0
VERTEX
  8
MY3DLAYER
10
68.5145694873705
20
116.047485767273
30
0.0
 70
     32
  0
VERTEX
  8
MY3DLAYER
10
75.2911555708664
20
114.673624694821
30
0.0
 70
     32
  0
VERTEX
  8
MY3DLAYER
10
82.0
20
113.0
30
0.0
 70
     32
  0
VERTEX
  8
MY3DLAYER
10
82.0
20
0.0
30
0.0
 70
     32
  0
VERTEX
  8
MY3DLAYER
10
0.0
20
0.0
30
0.0
 70
     32
  0
SEQEND
  0
POLYLINE
 8
Layer0
 66
     1
70
    8
 10
0.0
 20
 0.0
 30
0.0
  0
VERTEX
  8
MY3DLAYER
10
11.0
20
103.0
30
-4.53829564139133e-014
 70
     32
  0
VERTEX
  8
MY3DLAYER
10
11.0
20
87.0
30
-4.53829564139133e-014
 70
     32
  0
VERTEX
  8
MY3DLAYER
10
71.0
20
87.0
30
0.0
 70
     32
  0
VERTEX
  8
MY3DLAYER
10
71.0
20
103.0
30
-4.53829564139133e-014
 70
     32
  0
VERTEX
  8
MY3DLAYER
10
11.0
20
103.0
30
-4.53829564139133e-014
 70
     32
  0
SEQEND
  0
POLYLINE
 8
Layer0
 66
     1
70
    8
 10
0.0
 20
 0.0
 30
0.0
  0
VERTEX
  8
MY3DLAYER
10
28.5
20
5.5
30
0.0
 70
     32
  0
VERTEX
  8
MY3DLAYER
10
28.5
20
2.5
30
0.0
 70
     32
  0
VERTEX
  8
MY3DLAYER
10
53.5
20
2.5
30
0.0
 70
     32
  0
VERTEX
  8
MY3DLAYER
10
53.5
20
5.5
30
0.0
 70
     32
  0
VERTEX
  8
MY3DLAYER
10
28.5
20
5.5
30
0.0
 70
     32
  0
SEQEND
  0
POLYLINE
 8
Layer0
 66
     1
70
    8
 10
0.0
 20
 0.0
 30
0.0
  0
VERTEX
  8
MY3DLAYER
10
11.0
20
87.0
30
-4.53829564139133e-014
 70
     32
  0
VERTEX
  8
MY3DLAYER
10
11.0
20
103.0
30
-4.53829564139133e-014
 70
     32
  0
VERTEX
  8
MY3DLAYER
10
71.0
20
103.0
30
-4.53829564139133e-014
 70
     32
  0
VERTEX
  8
MY3DLAYER
10
71.0
20
87.0
30
0.0
 70
     32
  0
VERTEX
  8
MY3DLAYER
10
11.0
20
87.0
30
-4.53829564139133e-014
 70
     32
  0
SEQEND
  0
POLYLINE
 8
Layer0
 66
     1
70
    8
 10
0.0
 20
 0.0
 30
0.0
  0
VERTEX
  8
MY3DLAYER
10
28.5
20
2.5
30
0.0
 70
     32
  0
VERTEX
  8
MY3DLAYER
10
28.5
20
5.5
30
0.0
 70
     32
  0
VERTEX
  8
MY3DLAYER
10
53.5
20
5.5
30
0.0
 70
     32
  0
VERTEX
  8
MY3DLAYER
10
53.5
20
2.5
30
0.0
 70
     32
  0
VERTEX
  8
MY3DLAYER
10
28.5
20
2.5
30
0.0
 70
     32
  0
SEQEND
 0
ENDSEC
 0
EOF
